<svg xmlns="http://www.w3.org/2000/svg" width="72" height="72" fill="none" xmlns:v="https://vecta.io/nano"><circle cx="36" cy="36" r="36" fill="url(#A)"/><path fill-rule="evenodd" d="M55.414 35.414H45.98v-1.333h2.545c.324 0 .586-.262.586-.586s-.262-.586-.586-.586H45.98v-1.333h1.767a2.45 2.45 0 0 0 1.743-.722L53.343 27a1.83 1.83 0 0 0 .818.192c.491 0 .953-.191 1.3-.538s.539-.809.539-1.3-.191-.953-.539-1.3-.809-.538-1.3-.538-.953.191-1.3.538-.539.809-.539 1.3a1.83 1.83 0 0 0 .192.818l-3.854 3.854c-.244.244-.569.379-.914.379H45.98v-1.293c0-1.704-1.387-3.091-3.091-3.091h-1.293v-5.187a1.84 1.84 0 0 0-.586-3.581 1.84 1.84 0 0 0-.586 3.581v5.187h-1.333v-2.545c0-.324-.262-.586-.586-.586s-.586.262-.586.586v2.545h-1.333v-9.434c0-.324-.262-.586-.586-.586s-.586.262-.586.586v9.434h-1.333v-2.545c0-.324-.262-.586-.586-.586s-.586.262-.586.586v2.545h-1.333v-1.767a2.45 2.45 0 0 0-.722-1.743l-3.855-3.855a1.84 1.84 0 0 0-2.945-2.117 1.84 1.84 0 0 0 0 2.6c.358.358.829.538 1.3.538a1.84 1.84 0 0 0 .817-.192l3.855 3.855c.244.244.379.569.379.914v1.767h-1.293c-.261 0-.521.033-.773.097-.313.081-.502.4-.421.713s.4.502.714.421a1.93 1.93 0 0 1 .48-.061h13.778a1.92 1.92 0 0 1 1.919 1.919v13.778a1.93 1.93 0 0 1-.06.48c-.081.314.108.633.422.713.049.013.098.019.146.019.261 0 .499-.176.567-.44.065-.251.097-.511.097-.772v-1.293h5.187a1.84 1.84 0 0 0 3.581-.586 1.84 1.84 0 0 0-3.581-.586H45.98v-1.333h2.545c.324 0 .586-.262.586-.586s-.262-.586-.586-.586H45.98v-1.333h9.434c.324 0 .586-.262.586-.586s-.262-.586-.586-.586zM53.69 24.882a.66.66 0 0 1 .471-.195.66.66 0 0 1 .666.667.66.66 0 0 1-.666.667.66.66 0 0 1-.667-.667.66.66 0 0 1 .195-.471zM24.882 18.31a.67.67 0 0 0 .943 0 .67.67 0 0 0 0-.943c-.13-.13-.301-.195-.471-.195s-.341.065-.471.195c-.26.26-.26.683 0 .943zm16.128 1.448a.67.67 0 0 1-.667-.667.67.67 0 0 1 .667-.667c.368 0 .666.299.666.667a.67.67 0 0 1-.666.667zM53.576 41.01a.67.67 0 0 0-.666-.667c-.368 0-.667.299-.667.667a.67.67 0 0 0 .667.666c.367 0 .666-.299.666-.666zm-5.629 11.852a1.84 1.84 0 0 0-2.117-.346l-3.855-3.855c-.244-.244-.379-.569-.379-.914V45.98h1.293c.261 0 .521-.033.772-.097.313-.081.502-.4.421-.713s-.4-.502-.713-.421a1.93 1.93 0 0 1-.48.06H29.111a1.92 1.92 0 0 1-1.919-1.919V29.111c0-.163.02-.325.06-.48.081-.313-.108-.633-.421-.713s-.633.108-.713.421a3.1 3.1 0 0 0-.098.772v1.293h-5.187a1.84 1.84 0 0 0-3.581.586 1.84 1.84 0 0 0 3.581.586h5.187v1.333h-2.545c-.324 0-.586.262-.586.586s.262.586.586.586h2.545v1.333h-9.434c-.324 0-.586.262-.586.586s.262.586.586.586h9.434v1.333h-2.545c-.324 0-.586.262-.586.586s.262.586.586.586h2.545v1.333h-1.767a2.45 2.45 0 0 0-1.743.722L18.657 45a1.83 1.83 0 0 0-.818-.192c-.491 0-.953.191-1.3.538s-.538.809-.538 1.3.191.953.538 1.3.809.538 1.3.538.953-.191 1.3-.538.538-.809.538-1.3a1.83 1.83 0 0 0-.192-.818l3.854-3.854c.244-.244.569-.379.914-.379h1.767v1.293c0 1.704 1.387 3.091 3.091 3.091h1.293v5.187a1.84 1.84 0 0 0 .586 3.581 1.84 1.84 0 0 0 .586-3.581V45.98h1.333v2.545c0 .324.262.586.586.586s.586-.262.586-.586V45.98h1.333v9.434c0 .324.262.586.586.586s.586-.262.586-.586V45.98h1.333v2.545c0 .324.262.586.586.586s.586-.262.586-.586V45.98h1.333v1.767a2.45 2.45 0 0 0 .722 1.743l3.855 3.855a1.84 1.84 0 0 0 .346 2.117c.358.358.829.538 1.3.538s.942-.179 1.3-.538a1.84 1.84 0 0 0 0-2.6zM19.091 31.657a.67.67 0 0 1-.667-.667c0-.368.299-.666.667-.666a.67.67 0 0 1 .667.666c0 .368-.299.667-.667.667zm-1.253 15.657a.66.66 0 0 0 .667-.667.66.66 0 0 0-.667-.667.66.66 0 0 0-.666.667.66.66 0 0 0 .666.667zm13.818 5.596a.67.67 0 0 1-.667.666c-.368 0-.666-.299-.666-.666a.67.67 0 0 1 .666-.667.67.67 0 0 1 .667.667zm14.519 1.724a.67.67 0 0 0 .943 0 .67.67 0 0 0 0-.943c-.13-.13-.301-.195-.471-.195s-.341.065-.471.195a.67.67 0 0 0 0 .943zm-3.953-20.198c0-1.253-.917-2.315-2.171-2.66a2 2 0 0 0 .058-.472c0-1.186-1.053-2.152-2.347-2.152-.701 0-1.331.284-1.761.732-.431-.448-1.06-.732-1.761-.732-1.294 0-2.347.965-2.347 2.152a2 2 0 0 0 .058.472c-1.255.345-2.171 1.406-2.171 2.66 0 .612.217 1.19.617 1.667-.392.507-.617 1.122-.617 1.777 0 .996.532 1.926 1.409 2.503v.001c0 1.359 1.211 2.465 2.7 2.465.855 0 1.619-.366 2.114-.934.495.569 1.258.934 2.114.934 1.432 0 2.608-1.024 2.694-2.313.87-.505 1.415-1.389 1.415-2.344 0-.702-.299-1.372-.815-1.879.515-.506.815-1.177.815-1.879zm-2.074 2.397c.565.298.902.807.902 1.361 0 .413-.192.807-.516 1.102-.308-.57-.852-1.024-1.54-1.241-.309-.097-.638.075-.735.383s.075.638.383.735c.597.188.999.675.999 1.213 0 .713-.685 1.293-1.528 1.293s-1.528-.58-1.528-1.293v-3.758c0-.713.685-1.293 1.528-1.293.324 0 .586-.262.586-.586s-.262-.586-.586-.586c-.567 0-1.093.161-1.528.434v-.748c0-.323-.262-.586-.586-.586s-.586.262-.586.586V37.1c-.197-.124-.413-.226-.647-.3-.309-.097-.638.075-.735.383s.075.638.383.735c.597.188.999.675.999 1.213v1.252c0 .713-.685 1.293-1.528 1.293s-1.528-.58-1.528-1.293c0-.306.13-.603.365-.836.23-.228.231-.599.002-.829s-.599-.231-.829-.003c-.14.14-.261.292-.362.454-.37-.35-.586-.81-.586-1.292 0-.868.681-1.631 1.657-1.855.315-.072.512-.387.44-.702s-.387-.512-.702-.44a3.57 3.57 0 0 0-1.075.438c-.208-.261-.32-.567-.32-.886 0-.881.836-1.599 1.866-1.606h.007c.142 0 .277-.045.387-.138.225-.19.27-.513.119-.756l-.005-.008-.013-.019-.004-.005-.028-.037v-.001a.87.87 0 0 1-.214-.562c0-.54.527-.98 1.175-.98s1.175.439 1.175.98c0 .324.262.586.586.586s.586-.262.586-.586c0-.54.527-.98 1.175-.98s1.175.439 1.175.98c0 .144-.038.267-.088.369-.333.031-.656.112-.962.241-.298.126-.438.469-.312.768s.469.438.767.312c.253-.107.526-.162.81-.164h.007.025c1.03.007 1.865.724 1.865 1.606 0 .554-.337 1.063-.902 1.361-.192.101-.312.301-.312.518s.12.417.313.518z" fill="#fff"/><defs><linearGradient id="A" x1="-35.849" y1="35.849" x2="35.849" y2="107.547" gradientUnits="userSpaceOnUse"><stop stop-color="#33d35e"/><stop offset="1" stop-color="#2ab6d9"/></linearGradient></defs></svg>