<svg xmlns="http://www.w3.org/2000/svg" width="72" height="72" fill="none" xmlns:v="https://vecta.io/nano"><circle cx="36" cy="36" r="36" fill="url(#A)"/><path fill-rule="evenodd" d="M49.316 23.059v-3.727c-.002-1.839-1.493-3.329-3.332-3.332H19.332c-1.839.002-3.329 1.492-3.332 3.332V33.99c.005 1.702 1.295 3.125 2.988 3.297l2.505 6.502c.662 1.717 2.59 2.572 4.307 1.911l15.641-6.025a9.63 9.63 0 0 0 .83 8.552l.383.612v6.473c0 .368.298.666.666.666h11.994c.368 0 .666-.298.666-.666V33.318a8.72 8.72 0 0 0-2.553-6.142l-4.11-4.118zm0 3.985l2.022 5.25a2 2 0 0 1-1.148 2.583l-1.156.446c.184-.42.28-.874.281-1.333v-6.947zm-31.983-7.712V33.99a2 2 0 0 0 1.999 1.999h19.974l-2.602-2.842c-1.281-1.428-1.197-3.613.187-4.94s3.571-1.316 4.943.024l6.103 6.104c.025-.114.04-.229.045-.345V23.582l-.006-.015h.006v-4.235a2 2 0 0 0-1.999-1.999H19.332a2 2 0 0 0-1.999 1.999zm8.536 17.99l-4.738 1.824-.701-1.824h5.439zm-3.133 5.988a2 2 0 0 0 2.584 1.147l16.073-6.195-.866-.944H29.565v.004l-7.954 3.065 1.124 2.923zm21.249 11.336v-5.33h10.661v5.33H43.985zm-.297-6.663h10.957V33.318a7.38 7.38 0 0 0-2.162-5.198l-2.158-2.163 2.255 5.856c.66 1.716-.195 3.643-1.91 4.304l-.684.267 2.465 2.465-.942.942-10.618-10.615c-.855-.852-2.233-.865-3.105-.03a2.22 2.22 0 0 0-.103 3.104l5.46 5.957c.196.214.231.529.087.781a8.31 8.31 0 0 0 .169 8.534l.289.462zm-18.36-24.387c0 .957-.776 1.732-1.732 1.732h-3.198c-.957 0-1.733-.776-1.733-1.732v-3.198c0-.957.776-1.733 1.733-1.733h3.198c.957 0 1.732.776 1.732 1.733v3.198zm-5.33-.933v.933a.4.4 0 0 0 .4.4h3.198a.4.4 0 0 0 .4-.4v-.933h-1.333v-1.333h1.333v-.933a.4.4 0 0 0-.4-.4h-3.198a.4.4 0 0 0-.4.4v.933h1.333v1.333h-1.333zm1.999 4.664h-2.665v1.333h2.665v-1.333zm-2.665 3.998h2.665v1.333h-2.665v-1.333zm14.659 0h-2.665v1.333h2.665v-1.333zm-10.661-3.998h2.665v1.333h-2.665v-1.333zm6.663 0h-2.665v1.333h2.665v-1.333zm1.333 0h2.665v1.333h-2.665v-1.333zm13.993-7.996h-1.333v1.999h1.333v-1.999zm-3.998 0h1.333v1.999H41.32v-1.999zm-1.333 0h-1.333v1.999h1.333v-1.999zm-3.998 0h1.333v1.999h-1.333v-1.999zM46.65 51.981v-1.333h-1.333v1.333h1.333z" fill="#fff"/><defs><linearGradient id="A" x1="-35.849" y1="35.849" x2="35.849" y2="107.547" gradientUnits="userSpaceOnUse"><stop stop-color="#33d35e"/><stop offset="1" stop-color="#2ab6d9"/></linearGradient></defs></svg>