<svg xmlns="http://www.w3.org/2000/svg" width="72" height="72" fill="none" xmlns:v="https://vecta.io/nano"><circle cx="36" cy="36" r="36" fill="url(#A)"/><path fill-rule="evenodd" d="M52.129 39.226c0 1.612-.743 3.052-1.904 3.999 3.282.621 5.775 3.507 5.775 6.968V56H41.161v-7.419a.97.97 0 0 0-.968-.968h-.968v1.151l-1.802.443-.268.642.963 1.59-3.453 3.453-1.59-.963-.642.268L31.99 56h-4.883l-.443-1.802-.642-.268-1.59.963-3.453-3.453.963-1.59-.268-.642-1.803-.443v-4.883l1.803-.443.268-.642-.963-1.59.69-.69h-1.153a1.94 1.94 0 0 1-1.936-1.936v-1.29a1.94 1.94 0 0 1 1.936-1.936h1.29c.356 0 .645-.289.645-.645v-.645H16v-3.226c0-3.008 1.884-5.579 4.532-6.61-1.177-.816-1.952-2.175-1.952-3.713 0-2.49 2.026-4.516 4.516-4.516s4.516 2.026 4.516 4.516c0 1.537-.774 2.897-1.952 3.713 1.724.671 3.121 1.995 3.887 3.67a7.13 7.13 0 0 1 3.887-3.67c-1.177-.816-1.952-2.175-1.952-3.713C31.484 18.027 33.51 16 36 16s4.516 2.026 4.516 4.516c0 1.537-.774 2.897-1.952 3.713 2.648 1.031 4.532 3.601 4.532 6.61v3.226h-6.452v.645c0 .356.289.645.645.645h1.29a1.94 1.94 0 0 1 1.936 1.936v1.29a1.94 1.94 0 0 1-1.936 1.936h-1.153l.69.69-.963 1.59.075.18.049.121h6.287c-1.075-.947-1.759-2.329-1.759-3.871a5.17 5.17 0 0 1 5.161-5.161 5.17 5.17 0 0 1 5.161 5.161zm-5.161-3.871c-2.135 0-3.871 1.736-3.871 3.871s1.736 3.871 3.871 3.871 3.871-1.736 3.871-3.871-1.736-3.871-3.871-3.871zM32.774 20.516A3.23 3.23 0 0 1 36 17.29a3.23 3.23 0 0 1 3.226 3.226A3.23 3.23 0 0 1 36 23.742a3.23 3.23 0 0 1-3.226-3.226zm9.032 10.323c0-3.202-2.605-5.806-5.806-5.806s-5.806 2.605-5.806 5.806v1.936h1.935v-5.161h1.29v5.161h5.161v-5.161h1.29v5.161h1.935v-1.936zM19.871 20.516a3.23 3.23 0 0 1 3.226-3.226 3.23 3.23 0 0 1 3.226 3.226 3.23 3.23 0 0 1-3.226 3.226 3.23 3.23 0 0 1-3.226-3.226zm3.226 4.516c-3.202 0-5.807 2.605-5.807 5.806v1.936h1.936v-5.161h1.29v5.161h5.161v-5.161h1.29v5.161h1.935v-1.936c0-3.202-2.604-5.806-5.806-5.806zm-2.581 14.194c-.356 0-.645-.289-.645-.645v-1.29c0-.356.289-.645.645-.645h1.29a1.94 1.94 0 0 0 1.935-1.936v-.645h5.161 1.29 5.161v.645a1.94 1.94 0 0 0 1.936 1.936h1.29c.356 0 .645.289.645.645v1.29c0 .356-.289.645-.645.645h-2.443l-1.472-1.472-1.59.963-.642-.268-.443-1.802h-4.883l-.443 1.802-.642.268-1.59-.963-1.472 1.472h-2.443zm15.907 8.899l1.513-.372v-.139H35.21c-.592 2.611-2.932 4.516-5.661 4.516-3.202 0-5.806-2.604-5.806-5.806s2.605-5.806 5.807-5.806c1.935 0 3.74.984 4.813 2.581h1.503l-.017-.035-.167-.321.81-1.338-2.021-2.021-1.338.81-.321-.167c-.37-.192-.745-.349-1.113-.466l-.346-.109-.372-1.514h-2.859l-.372 1.514-.346.109a7.02 7.02 0 0 0-1.113.466l-.321.167-1.338-.81-2.021 2.021.81 1.338-.167.321a7.09 7.09 0 0 0-.466 1.113l-.109.346-1.514.372v2.859l1.514.372.109.346a7.02 7.02 0 0 0 .466 1.113l.167.321-.81 1.338 2.021 2.021 1.338-.81.321.167c.37.192.745.349 1.114.466l.345.11.372 1.513h2.859l.372-1.514.346-.109c.368-.117.743-.274 1.113-.466l.321-.167 1.338.81 2.021-2.021-.81-1.338.167-.321c.192-.37.349-.744.466-1.114l.11-.345zm-5.333-.639a1.93 1.93 0 0 1-1.541.773 1.94 1.94 0 0 1-1.936-1.935 1.94 1.94 0 0 1 1.936-1.936c.046 0 .09.008.135.016l.077.012c-.133.287-.212.603-.212.94 0 .993.648 1.829 1.541 2.13zm-1.541-4.388a3.24 3.24 0 0 1 1.245.251c.306-.155.647-.251 1.013-.251h.897c-.835-.813-1.964-1.29-3.155-1.29-2.49 0-4.516 2.026-4.516 4.516s2.026 4.516 4.516 4.516c2.023 0 3.766-1.345 4.326-3.226h-1.371c-.507 1.16-1.657 1.935-2.956 1.935a3.23 3.23 0 0 1-3.226-3.226 3.23 3.23 0 0 1 3.226-3.226zM54.71 54.71h-1.935v-7.097h-1.29v7.097h-9.032v-6.129a2.26 2.26 0 0 0-2.258-2.258h-8.387a.97.97 0 0 1-.968-.968.97.97 0 0 1 .968-.968h17.097c3.202 0 5.807 2.605 5.807 5.807v4.516zM56 28.258c0-2.49-2.026-4.516-4.516-4.516h-2.581c-2.49 0-4.516 2.026-4.516 4.516v4.516h7.097c2.49 0 4.516-2.027 4.516-4.516zm-10.323 0a3.23 3.23 0 0 1 3.226-3.226h2.581a3.23 3.23 0 0 1 3.226 3.226 3.23 3.23 0 0 1-3.226 3.226h-5.806v-3.226zm1.29.645h1.29v1.29h-1.29v-1.29zm3.871 0h-1.29v1.29h1.29v-1.29zm1.29 0h1.29v1.29h-1.29v-1.29zm1.29-2.581h-6.452v1.29h6.452v-1.29z" fill="#fff"/><defs><linearGradient id="A" x1="-35.849" y1="35.849" x2="35.849" y2="107.547" gradientUnits="userSpaceOnUse"><stop stop-color="#33d35e"/><stop offset="1" stop-color="#2ab6d9"/></linearGradient></defs></svg>