<svg xmlns="http://www.w3.org/2000/svg" width="72" height="72" fill="none" xmlns:v="https://vecta.io/nano"><circle cx="36" cy="36" r="36" fill="url(#A)"/><path fill-rule="evenodd" d="M47.725 19.092v7.57c5.231.286 9.393 4.365 9.393 9.338s-4.162 9.052-9.393 9.338v7.57c0 1.705-1.387 3.092-3.092 3.092H27.099c-1.705 0-3.092-1.387-3.092-3.092v-7.241c0-.324.263-.587.587-.587s.587.263.587.587v3.523h21.37v-3.852c-.992-.054-1.961-.244-2.89-.567l-4.383 2.391c-.466.254-1.013-.22-.833-.716l1.308-3.596h-6.705a.59.59 0 0 1-.415-.172l-4.697-4.697c-.109-.109-.172-.261-.172-.415V24.728c0-.324.263-.587.587-.587H43.38c.324 0 .587.263.587.587v2.402a10.51 10.51 0 0 1 2.583-.467v-4.478h-21.37v20.704c0 .324-.263.587-.587.587s-.587-.263-.587-.587V19.092c0-1.705 1.387-3.092 3.092-3.092h17.534c1.705 0 3.092 1.387 3.092 3.092zm-3.092 35.734a1.92 1.92 0 0 0 1.918-1.918v-2.544h-21.37v2.544a1.92 1.92 0 0 0 1.918 1.918h17.534zM25.181 21.01v-1.918a1.92 1.92 0 0 1 1.918-1.918h17.534a1.92 1.92 0 0 1 1.918 1.918v1.918h-21.37zm4.588 17.143l2.692 2.692v-2.692h-2.692zm3.866 3.522v-4.11c0-.324-.263-.587-.587-.587h-4.11V25.315h13.855v2.264a10.14 10.14 0 0 0-1.705.986c-.066-.026-.138-.041-.213-.041h-3.131c-.324 0-.587.263-.587.587s.263.587.587.587h2.024c-.573.589-1.067 1.246-1.467 1.957h-6.819c-.324 0-.587.263-.587.587s.263.587.587.587h6.266a8.79 8.79 0 0 0-.59 3.17c0 2.083.718 4.054 2.045 5.675h-5.567 0zm10.185 1.904c1.054.399 2.171.601 3.318.601 4.856 0 8.806-3.669 8.806-8.18s-3.951-8.18-8.806-8.18-8.806 3.67-8.806 8.18c0 2.217.94 4.293 2.648 5.846.176.16.238.411.157.635l-1.057 2.906 3.252-1.774c.15-.082.329-.094.489-.034zm-9.207-25.074h2.505c.324 0 .587.263.587.587s-.263.587-.587.587h-2.505c-.324 0-.587-.263-.587-.587s.263-.587.587-.587zm2.505 32.564h-2.505c-.324 0-.587.263-.587.587v1.879c0 .324.263.587.587.587h2.505c.324 0 .587-.263.587-.587v-1.879c0-.324-.263-.587-.587-.587zm-.587 1.879H35.2v-.705h1.331v.705zM35.24 28.525h-3.757c-.324 0-.587.263-.587.587s.263.587.587.587h3.757c.324 0 .587-.263.587-.587s-.263-.587-.587-.587zm-3.757 6.262h4.384c.324 0 .587.263.587.587s-.263.587-.587.587h-4.384c-.324 0-.587-.263-.587-.587s.263-.587.587-.587zm18.748-.665c0 .324-.263.587-.587.587s-.587-.263-.587-.587v-.626c0-.712-.579-1.292-1.292-1.292h-.939c-.885 0-1.605.72-1.605 1.605s.72 1.605 1.605 1.605h.626c1.532 0 2.779 1.247 2.779 2.779 0 1.44-1.101 2.627-2.505 2.765v1.305c0 .324-.263.587-.587.587s-.587-.263-.587-.587v-1.292h-.039a2.47 2.47 0 0 1-2.466-2.466c0-.324.263-.587.587-.587s.587.263.587.587c0 .712.579 1.292 1.291 1.292h.939c.885 0 1.605-.72 1.605-1.605s-.72-1.605-1.605-1.605h-.626c-1.532 0-2.779-1.247-2.779-2.779 0-1.44 1.101-2.627 2.505-2.765v-1.305c0-.324.263-.587.587-.587s.587.263.587.587v1.292h.039a2.47 2.47 0 0 1 2.466 2.466v.626z" fill="#fff"/><defs><linearGradient id="A" x1="-35.849" y1="35.849" x2="35.849" y2="107.547" gradientUnits="userSpaceOnUse"><stop stop-color="#33d35e"/><stop offset="1" stop-color="#2ab6d9"/></linearGradient></defs></svg>